<?xml version="1.0" encoding="UTF-8"?>
<svg xmlns="http://www.w3.org/2000/svg" xmlns:xlink="http://www.w3.org/1999/xlink" width="px" height="px" viewBox="0 0 500 500" version="1.1">
<defs>
<radialGradient id="radial0" gradientUnits="userSpaceOnUse" cx="199.7884" cy="628.4379" fx="199.7884" fy="628.4379" r="52.3515" gradientTransform="matrix(-5.87333,1.656416,-1.193386,-4.231446,2407.247169,2562.624701)">
<stop offset="0" style="stop-color:rgb(100%,0%,37.254902%);stop-opacity:1;"/>
<stop offset="1" style="stop-color:rgb(98.823529%,0.392157%,84.705882%);stop-opacity:1;"/>
</radialGradient>
<radialGradient id="radial1" gradientUnits="userSpaceOnUse" cx="158.429" cy="578.088" fx="158.429" fy="578.088" r="52.3515" gradientTransform="matrix(0,-7.623648,8.08853,0,-4543.07358,1746.317133)">
<stop offset="0" style="stop-color:rgb(100%,80%,0%);stop-opacity:1;"/>
<stop offset="0.1242" style="stop-color:rgb(100%,80%,0%);stop-opacity:1;"/>
<stop offset="0.5672" style="stop-color:rgb(99.607843%,29.019608%,1.960784%);stop-opacity:1;"/>
<stop offset="0.6942" style="stop-color:rgb(100%,5.882353%,24.705882%);stop-opacity:1;"/>
<stop offset="1" style="stop-color:rgb(99.607843%,2.352941%,34.117647%);stop-opacity:0;"/>
</radialGradient>
<radialGradient id="radial2" gradientUnits="userSpaceOnUse" cx="172.6149" cy="600.6924" fx="172.6149" fy="600.6924" r="65" gradientTransform="matrix(1.274476,-2.195962,2.858892,1.659232,-1674.673345,-124.683417)">
<stop offset="0" style="stop-color:rgb(100%,80%,0%);stop-opacity:1;"/>
<stop offset="1" style="stop-color:rgb(100%,80%,0%);stop-opacity:0;"/>
</radialGradient>
<radialGradient id="radial3" gradientUnits="userSpaceOnUse" cx="144.012" cy="51.3367" fx="144.012" fy="51.3367" r="67.081" gradientTransform="matrix(-4.533355,1.276517,-0.434797,-1.544542,743.017794,-84.182184)">
<stop offset="0" style="stop-color:rgb(47.058824%,4.705882%,100%);stop-opacity:1;"/>
<stop offset="1" style="stop-color:rgb(50.980392%,4.313725%,100%);stop-opacity:0;"/>
</radialGradient>
</defs>
<g id="surface1">
<path style=" stroke:none;fill-rule:nonzero;fill:url(#radial0);" d="M 250.082031 0 C 145.707031 0 115.183594 0.109375 109.25 0.601562 C 87.832031 2.382812 74.503906 5.753906 59.984375 12.984375 C 48.792969 18.542969 39.96875 24.988281 31.257812 34.019531 C 15.394531 50.488281 5.78125 70.753906 2.300781 94.839844 C 0.609375 106.53125 0.117188 108.917969 0.015625 168.644531 C -0.0195312 188.554688 0.015625 214.757812 0.015625 249.902344 C 0.015625 354.21875 0.132812 384.722656 0.632812 390.644531 C 2.363281 411.492188 5.632812 424.609375 12.554688 438.957031 C 25.78125 466.421875 51.046875 487.039062 80.808594 494.730469 C 91.117188 497.382812 102.496094 498.847656 117.109375 499.539062 C 123.300781 499.808594 186.40625 500 249.546875 500 C 312.6875 500 375.832031 499.921875 381.867188 499.617188 C 398.789062 498.820312 408.613281 497.5 419.476562 494.691406 C 449.433594 486.960938 474.234375 466.652344 487.734375 438.800781 C 494.519531 424.800781 497.960938 411.183594 499.519531 391.425781 C 499.859375 387.117188 500 318.429688 500 249.835938 C 500 181.230469 499.847656 112.671875 499.507812 108.363281 C 497.929688 88.285156 494.488281 74.785156 487.484375 60.511719 C 481.734375 48.832031 475.351562 40.105469 466.082031 31.1875 C 449.542969 15.386719 429.316406 5.769531 405.214844 2.292969 C 393.535156 0.605469 391.207031 0.105469 331.449219 0 Z M 250.082031 0 "/>
<path style=" stroke:none;fill-rule:nonzero;fill:url(#radial1);" d="M 250.082031 0 C 145.707031 0 115.183594 0.109375 109.25 0.601562 C 87.832031 2.382812 74.503906 5.753906 59.984375 12.984375 C 48.792969 18.542969 39.96875 24.988281 31.257812 34.019531 C 15.394531 50.488281 5.78125 70.753906 2.300781 94.839844 C 0.609375 106.53125 0.117188 108.917969 0.015625 168.644531 C -0.0195312 188.554688 0.015625 214.757812 0.015625 249.902344 C 0.015625 354.21875 0.132812 384.722656 0.632812 390.644531 C 2.363281 411.492188 5.632812 424.609375 12.554688 438.957031 C 25.78125 466.421875 51.046875 487.039062 80.808594 494.730469 C 91.117188 497.382812 102.496094 498.847656 117.109375 499.539062 C 123.300781 499.808594 186.40625 500 249.546875 500 C 312.6875 500 375.832031 499.921875 381.867188 499.617188 C 398.789062 498.820312 408.613281 497.5 419.476562 494.691406 C 449.433594 486.960938 474.234375 466.652344 487.734375 438.800781 C 494.519531 424.800781 497.960938 411.183594 499.519531 391.425781 C 499.859375 387.117188 500 318.429688 500 249.835938 C 500 181.230469 499.847656 112.671875 499.507812 108.363281 C 497.929688 88.285156 494.488281 74.785156 487.484375 60.511719 C 481.734375 48.832031 475.351562 40.105469 466.082031 31.1875 C 449.542969 15.386719 429.316406 5.769531 405.214844 2.292969 C 393.535156 0.605469 391.207031 0.105469 331.449219 0 Z M 250.082031 0 "/>
<path style=" stroke:none;fill-rule:nonzero;fill:url(#radial2);" d="M 250.082031 0 C 145.707031 0 115.183594 0.109375 109.25 0.601562 C 87.832031 2.382812 74.503906 5.753906 59.984375 12.984375 C 48.792969 18.542969 39.96875 24.988281 31.257812 34.019531 C 15.394531 50.488281 5.78125 70.753906 2.300781 94.839844 C 0.609375 106.53125 0.117188 108.917969 0.015625 168.644531 C -0.0195312 188.554688 0.015625 214.757812 0.015625 249.902344 C 0.015625 354.21875 0.132812 384.722656 0.632812 390.644531 C 2.363281 411.492188 5.632812 424.609375 12.554688 438.957031 C 25.78125 466.421875 51.046875 487.039062 80.808594 494.730469 C 91.117188 497.382812 102.496094 498.847656 117.109375 499.539062 C 123.300781 499.808594 186.40625 500 249.546875 500 C 312.6875 500 375.832031 499.921875 381.867188 499.617188 C 398.789062 498.820312 408.613281 497.5 419.476562 494.691406 C 449.433594 486.960938 474.234375 466.652344 487.734375 438.800781 C 494.519531 424.800781 497.960938 411.183594 499.519531 391.425781 C 499.859375 387.117188 500 318.429688 500 249.835938 C 500 181.230469 499.847656 112.671875 499.507812 108.363281 C 497.929688 88.285156 494.488281 74.785156 487.484375 60.511719 C 481.734375 48.832031 475.351562 40.105469 466.082031 31.1875 C 449.542969 15.386719 429.316406 5.769531 405.214844 2.292969 C 393.535156 0.605469 391.207031 0.105469 331.449219 0 Z M 250.082031 0 "/>
<path style=" stroke:none;fill-rule:nonzero;fill:url(#radial3);" d="M 250.082031 0 C 145.707031 0 115.183594 0.109375 109.25 0.601562 C 87.832031 2.382812 74.503906 5.753906 59.984375 12.984375 C 48.792969 18.542969 39.96875 24.988281 31.257812 34.019531 C 15.394531 50.488281 5.78125 70.753906 2.300781 94.839844 C 0.609375 106.53125 0.117188 108.917969 0.015625 168.644531 C -0.0195312 188.554688 0.015625 214.757812 0.015625 249.902344 C 0.015625 354.21875 0.132812 384.722656 0.632812 390.644531 C 2.363281 411.492188 5.632812 424.609375 12.554688 438.957031 C 25.78125 466.421875 51.046875 487.039062 80.808594 494.730469 C 91.117188 497.382812 102.496094 498.847656 117.109375 499.539062 C 123.300781 499.808594 186.40625 500 249.546875 500 C 312.6875 500 375.832031 499.921875 381.867188 499.617188 C 398.789062 498.820312 408.613281 497.5 419.476562 494.691406 C 449.433594 486.960938 474.234375 466.652344 487.734375 438.800781 C 494.519531 424.800781 497.960938 411.183594 499.519531 391.425781 C 499.859375 387.117188 500 318.429688 500 249.835938 C 500 181.230469 499.847656 112.671875 499.507812 108.363281 C 497.929688 88.285156 494.488281 74.785156 487.484375 60.511719 C 481.734375 48.832031 475.351562 40.105469 466.082031 31.1875 C 449.542969 15.386719 429.316406 5.769531 405.214844 2.292969 C 393.535156 0.605469 391.207031 0.105469 331.449219 0 Z M 250.082031 0 "/>
<path style=" stroke:none;fill-rule:nonzero;fill:rgb(100%,100%,100%);fill-opacity:1;" d="M 250.101562 64.199219 C 199.613281 64.199219 193.277344 64.421875 173.445312 65.324219 C 153.65625 66.230469 140.148438 69.359375 128.328125 73.953125 C 116.097656 78.699219 105.726562 85.046875 95.394531 95.375 C 85.054688 105.699219 78.703125 116.0625 73.9375 128.277344 C 69.328125 140.09375 66.191406 153.597656 65.300781 173.367188 C 64.414062 193.179688 64.183594 199.515625 64.183594 249.964844 C 64.183594 300.417969 64.40625 306.730469 65.304688 326.542969 C 66.214844 346.320312 69.347656 359.820312 73.941406 371.632812 C 78.695312 383.851562 85.046875 394.214844 95.382812 404.539062 C 105.710938 414.871094 116.085938 421.234375 128.304688 425.980469 C 140.132812 430.574219 153.644531 433.703125 173.429688 434.609375 C 193.261719 435.511719 199.59375 435.730469 250.078125 435.730469 C 300.570312 435.730469 306.886719 435.511719 326.714844 434.609375 C 346.507812 433.703125 360.03125 430.574219 371.859375 425.980469 C 384.082031 421.234375 394.441406 414.871094 404.769531 404.539062 C 415.109375 394.214844 421.460938 383.851562 426.226562 371.636719 C 430.796875 359.820312 433.933594 346.316406 434.863281 326.546875 C 435.753906 306.734375 435.984375 300.417969 435.984375 249.964844 C 435.984375 199.515625 435.753906 193.183594 434.863281 173.371094 C 433.933594 153.59375 430.796875 140.09375 426.226562 128.28125 C 421.460938 116.0625 415.109375 105.699219 404.769531 95.375 C 394.429688 85.042969 384.085938 78.695312 371.847656 73.953125 C 359.996094 69.359375 346.480469 66.230469 326.691406 65.324219 C 306.859375 64.421875 300.546875 64.199219 250.042969 64.199219 Z M 233.425781 97.675781 C 238.375 97.667969 243.898438 97.675781 250.101562 97.675781 C 299.738281 97.675781 305.621094 97.855469 325.222656 98.746094 C 343.347656 99.574219 353.183594 102.601562 359.738281 105.144531 C 368.414062 108.511719 374.597656 112.535156 381.101562 119.035156 C 387.609375 125.539062 391.636719 131.730469 395.011719 140.398438 C 397.558594 146.941406 400.589844 156.769531 401.414062 174.882812 C 402.304688 194.464844 402.5 200.347656 402.5 249.925781 C 402.5 299.5 402.304688 305.382812 401.414062 324.964844 C 400.585938 343.078125 397.558594 352.90625 395.011719 359.449219 C 391.644531 368.117188 387.609375 374.289062 381.101562 380.789062 C 374.59375 387.289062 368.417969 391.316406 359.738281 394.683594 C 353.191406 397.238281 343.347656 400.253906 325.222656 401.082031 C 305.625 401.972656 299.738281 402.167969 250.101562 402.167969 C 200.460938 402.167969 194.578125 401.972656 174.980469 401.082031 C 156.855469 400.246094 147.019531 397.222656 140.460938 394.679688 C 131.785156 391.3125 125.589844 387.285156 119.082031 380.785156 C 112.574219 374.28125 108.546875 368.105469 105.167969 359.433594 C 102.625 352.890625 99.59375 343.0625 98.769531 324.949219 C 97.878906 305.367188 97.699219 299.484375 97.699219 249.878906 C 97.699219 200.269531 97.878906 194.417969 98.769531 174.835938 C 99.597656 156.722656 102.625 146.894531 105.167969 140.34375 C 108.539062 131.675781 112.574219 125.484375 119.082031 118.984375 C 125.589844 112.480469 131.785156 108.457031 140.460938 105.082031 C 147.015625 102.527344 156.855469 99.507812 174.980469 98.675781 C 192.128906 97.902344 198.777344 97.667969 233.425781 97.632812 Z M 349.335938 128.523438 C 337.019531 128.523438 327.027344 138.496094 327.027344 150.804688 C 327.027344 163.113281 337.019531 173.097656 349.335938 173.097656 C 361.652344 173.097656 371.644531 163.113281 371.644531 150.804688 C 371.644531 138.5 361.652344 128.515625 349.335938 128.515625 Z M 250.101562 154.566406 C 197.378906 154.566406 154.632812 197.28125 154.632812 249.964844 C 154.632812 302.652344 197.378906 345.34375 250.101562 345.34375 C 302.824219 345.34375 345.554688 302.652344 345.554688 249.964844 C 345.554688 197.28125 302.820312 154.566406 250.097656 154.566406 Z M 250.101562 188.042969 C 284.324219 188.042969 312.070312 215.765625 312.070312 249.964844 C 312.070312 284.164062 284.324219 311.886719 250.101562 311.886719 C 215.875 311.886719 188.132812 284.164062 188.132812 249.964844 C 188.132812 215.765625 215.875 188.042969 250.101562 188.042969 Z M 250.101562 188.042969 "/>
</g>
</svg>
